<svg width="40" height="40" viewBox="0 0 40 40" fill="none" xmlns="http://www.w3.org/2000/svg">
<path d="M0 20C0 8.95431 8.95431 0 20 0C31.0457 0 40 8.95431 40 20C40 31.0457 31.0457 40 20 40C8.95431 40 0 31.0457 0 20Z" fill="#2C2C2E"/>
<path fill-rule="evenodd" clip-rule="evenodd" d="M22.495 26.495C22.7684 26.2216 22.7684 25.7784 22.495 25.505L16.99 20L22.495 14.495C22.7684 14.2216 22.7684 13.7784 22.495 13.505C22.2217 13.2317 21.7784 13.2317 21.5051 13.505L15.5051 19.505C15.2317 19.7784 15.2317 20.2216 15.5051 20.495L21.5051 26.495C21.7784 26.7684 22.2217 26.7684 22.495 26.495Z" fill="#F2F2F2"/>
</svg>
