<svg width="40" height="40" viewBox="0 0 40 40" fill="none" xmlns="http://www.w3.org/2000/svg">
<path d="M0 20C0 8.95431 8.95431 0 20 0C31.0457 0 40 8.95431 40 20C40 31.0457 31.0457 40 20 40C8.95431 40 0 31.0457 0 20Z" fill="#2C2C2E"/>
<path fill-rule="evenodd" clip-rule="evenodd" d="M17.505 13.505C17.2316 13.7784 17.2316 14.2216 17.505 14.495L23.01 20L17.505 25.505C17.2316 25.7784 17.2316 26.2216 17.505 26.495C17.7783 26.7683 18.2216 26.7683 18.4949 26.495L24.4949 20.495C24.7683 20.2216 24.7683 19.7784 24.4949 19.505L18.4949 13.505C18.2216 13.2316 17.7783 13.2316 17.505 13.505Z" fill="#F2F2F2"/>
</svg>
