<svg width="24" height="24" viewBox="0 0 24 24" fill="none" xmlns="http://www.w3.org/2000/svg">
<path fill-rule="evenodd" clip-rule="evenodd" d="M9.24231 2.90907C11.3455 2.27106 13.6049 2.38205 15.6355 3.22315C17.6661 4.06424 19.3422 5.58338 20.3783 7.52173C21.4143 9.46009 21.7463 11.6977 21.3175 13.8534C20.8887 16.009 19.7257 17.9493 18.0268 19.3436C16.3278 20.7379 14.1979 21.5 12 21.5C11.7239 21.5 11.5 21.2761 11.5 21C11.5 20.7239 11.7239 20.5 12 20.5C13.9665 20.5 15.8722 19.8181 17.3924 18.5706C18.9125 17.323 19.953 15.587 20.3367 13.6583C20.7203 11.7295 20.4234 9.72745 19.4963 7.99313C18.5693 6.25881 17.0697 4.89958 15.2528 4.14702C13.436 3.39447 11.4144 3.29516 9.5326 3.86601C7.65075 4.43686 6.02506 5.64255 4.93252 7.27765C3.83998 8.91275 3.34819 10.8761 3.54094 12.8331C3.7337 14.7902 4.59907 16.6199 5.98961 18.0104C6.18487 18.2057 6.18487 18.5222 5.98961 18.7175C5.79434 18.9128 5.47776 18.9128 5.2825 18.7175C3.72837 17.1634 2.76119 15.1185 2.54576 12.9312C2.33033 10.7439 2.87998 8.54955 4.10105 6.72208C5.32213 4.89462 7.13908 3.54708 9.24231 2.90907Z" fill="#2C2C2E"/>
<path fill-rule="evenodd" clip-rule="evenodd" d="M16.3201 9.61589C16.108 9.43911 15.7927 9.46777 15.6159 9.67991L12.0179 13.9975C11.6807 14.4022 11.4603 14.6648 11.273 14.8352C11.0964 14.9959 11.0112 15.0155 10.9555 15.0181C10.8998 15.0206 10.8131 15.0087 10.6227 14.8647C10.4207 14.712 10.1775 14.4703 9.80496 14.0978L8.35357 12.6464C8.15831 12.4512 7.84172 12.4512 7.64646 12.6464C7.4512 12.8417 7.4512 13.1583 7.64646 13.3536L9.12241 14.8295C9.46344 15.1706 9.75559 15.4627 10.0195 15.6623C10.3013 15.8754 10.6159 16.0345 11.0008 16.017C11.3856 15.9996 11.6846 15.8126 11.9459 15.5749C12.1907 15.3523 12.4552 15.0349 12.7639 14.6643L16.3841 10.3201C16.5609 10.108 16.5322 9.79267 16.3201 9.61589Z" fill="#2C2C2E"/>
</svg>
