<svg width="24" height="24" viewBox="0 0 24 24" fill="none" xmlns="http://www.w3.org/2000/svg">
<path fill-rule="evenodd" clip-rule="evenodd" d="M21 12C21 16.9706 16.9706 21 12 21C7.02944 21 3 16.9706 3 12C3 7.02944 7.02944 3 12 3C16.9706 3 21 7.02944 21 12ZM12 19.875C16.3492 19.875 19.875 16.3492 19.875 12C19.875 7.65076 16.3492 4.125 12 4.125C7.65076 4.125 4.125 7.65076 4.125 12C4.125 16.3492 7.65076 19.875 12 19.875Z" fill="#2C2C2E"/>
<path fill-rule="evenodd" clip-rule="evenodd" d="M12 6.9375C12.3107 6.9375 12.5625 7.18934 12.5625 7.5V12.5625H15.375C15.6857 12.5625 15.9375 12.8143 15.9375 13.125C15.9375 13.4357 15.6857 13.6875 15.375 13.6875H12.2812C11.8153 13.6875 11.4375 13.3097 11.4375 12.8438V7.5C11.4375 7.18934 11.6893 6.9375 12 6.9375Z" fill="#2C2C2E"/>
</svg>
